<?xml version="1.0" encoding="UTF-8"?>
<svg width="24px" height="24px" viewBox="0 0 24 24" version="1.1" xmlns="http://www.w3.org/2000/svg" xmlns:xlink="http://www.w3.org/1999/xlink">
    <!-- Generator: Sketch 63.1 (92452) - https://sketch.com -->
    <title>Icon/Time</title>
    <desc>Created with Sketch.</desc>
    <g id="Icon/Time" stroke="none" stroke-width="1" fill="none" fill-rule="evenodd">
        <polygon id="Path" points="0 0 24 0 24 24 0 24"></polygon>
        <path d="M12,21 C8.13,21 5,17.87 5,14 C5,10.13 8.13,7 12,7 C15.87,7 19,10.13 19,14 C19,17.87 15.87,21 12,21 L12,21 Z M19.03,8.39 L20.45,6.97 C20.02,6.46 19.55,5.98 19.04,5.56 L17.62,6.98 C16.07,5.74 14.12,5 12,5 C7.03,5 3,9.03 3,14 C3,18.97 7.02,23 12,23 C16.98,23 21,18.97 21,14 C21,11.88 20.26,9.93 19.03,8.39 L19.03,8.39 Z M11,15 L13,15 L13,9 L11,9 L11,15 Z M9,4 L15,4 L15,2 L9,2 L9,4 Z" id="Fill-1" fill="#3B3229"></path>
    </g>
</svg>